<svg width="671" height="421" viewBox="0 0 671 421" fill="none" xmlns="http://www.w3.org/2000/svg">
<path d="M284.139 338.548C247.039 368.89 166.953 412.033 108.172 390.908C58.366 373.008 50.5331 280.713 50.5331 280.713C50.5331 280.713 4.86929 270.787 7.97772 252.298C11.0861 233.808 55.1697 214.404 44.0144 184.666C14.0978 104.915 85.0888 4.98737 208.031 8.09593C330.973 11.2045 361.145 129.008 360.863 187.522C360.536 255.344 313.82 314.274 284.139 338.548Z" stroke="#241E24" stroke-width="15"/>
<path d="M190.229 163.963C259.177 42.3258 416.971 142.841 252.528 198.423C168.959 226.669 299.47 94.4018 258.275 63.4915C217.08 32.5812 125.112 195.646 97.4029 160.009C69.6942 124.372 237.396 54.6506 184.353 52.3912C86.2231 48.2114 106.937 123.308 155.187 175.723C203.437 228.138 266.179 181.662 276.675 130.538C291.78 56.9671 355.525 61.7949 408.259 100.751C456.963 136.73 520.136 252.571 586.289 255.389C663.205 258.665 705.801 220.384 716.254 149.262C726.708 78.1401 674.39 20.7712 562.188 43.2682C477.45 60.2585 528.341 171.092 619.301 174.966C672.459 177.231 680.38 147.734 668.145 111.821C655.909 75.9084 573.396 57.9766 599.226 118.373" stroke="#472BEA" stroke-width="13" stroke-linecap="round"/>
</svg>
