<svg width="805" height="382" viewBox="0 0 805 382" fill="none" xmlns="http://www.w3.org/2000/svg">
<path d="M298 61.1212L302.649 56.5781L298 61.1212ZM570 371L572.592 376.961L570 371ZM616 241L615.282 234.54L616 241ZM743.912 144.787C740.48 143.732 736.843 145.657 735.787 149.088L718.583 205.002C717.528 208.433 719.453 212.07 722.884 213.126C726.316 214.181 729.953 212.256 731.009 208.825L746.301 159.124L796.002 174.417C799.433 175.472 803.07 173.547 804.126 170.116C805.181 166.684 803.256 163.047 799.825 161.991L743.912 144.787ZM3.39083 25.4706C37.9124 17.9088 94.0972 10.8867 150.036 14.458C206.257 18.0472 260.689 32.2419 293.351 65.6642L302.649 56.5781C266.511 19.6005 207.943 5.12846 150.864 1.48439C93.5028 -2.17769 36.0876 5.00026 0.609167 12.7717L3.39083 25.4706ZM293.351 65.6642C314.29 87.0898 335.96 119.388 358.308 155.697C380.453 191.675 403.403 231.834 426.276 267.565C449.182 303.349 472.657 335.762 496.49 356.713C520.287 377.633 546.119 388.471 572.592 376.961L567.408 365.039C547.881 373.529 527.463 366.632 505.073 346.95C482.718 327.298 460.068 296.242 437.224 260.556C414.347 224.818 391.922 185.507 369.379 148.883C347.04 112.589 324.71 79.1526 302.649 56.5781L293.351 65.6642ZM572.592 376.961C605.677 362.576 632.685 326.786 644.101 295.717C649.775 280.276 652.116 264.633 648.168 252.753C646.121 246.593 642.324 241.324 636.427 237.977C630.621 234.682 623.454 233.632 615.282 234.54L616.718 247.46C623.046 246.757 627.254 247.719 630.011 249.283C632.676 250.796 634.629 253.234 635.832 256.853C638.384 264.532 637.225 276.737 631.899 291.233C621.315 320.035 596.323 352.467 567.408 365.039L572.592 376.961ZM615.282 234.54C608.757 235.265 603.365 236.364 599.117 237.875C594.998 239.34 591.202 241.454 588.822 244.727C586.116 248.447 585.898 252.73 587.384 256.578C588.72 260.035 591.348 263.025 594.229 265.536C600.067 270.625 609.065 275.557 619.553 279.914C630.159 284.32 642.731 288.318 656.05 291.366C682.505 297.419 712.806 299.926 736.877 293.701C748.986 290.57 759.953 285.115 767.92 276.347C775.992 267.464 780.5 255.707 780.5 241H767.5C767.5 252.868 763.946 261.39 758.299 267.605C752.547 273.935 744.139 278.396 733.623 281.115C712.444 286.592 684.495 284.539 658.95 278.693C646.269 275.792 634.403 272.006 624.54 267.909C614.56 263.763 607.058 259.473 602.771 255.736C600.59 253.835 599.749 252.511 599.511 251.893C599.419 251.657 599.486 251.705 599.461 251.95C599.432 252.223 599.326 252.385 599.335 252.374C599.47 252.188 600.385 251.221 603.473 250.123C606.432 249.071 610.743 248.124 616.718 247.46L615.282 234.54ZM780.5 241C780.5 209.069 765.531 181.555 747.745 147.959L736.255 154.041C754.469 188.445 767.5 212.931 767.5 241H780.5Z" fill="#472BEA"/>
</svg>
