<svg width="340" height="420" viewBox="0 0 340 420" fill="none" xmlns="http://www.w3.org/2000/svg">
<path d="M331.603 16.3482C335.109 17.1195 338.577 14.9026 339.348 11.3966C340.119 7.8906 337.903 4.42313 334.397 3.65182L331.603 16.3482ZM3.73277 356.381C0.629328 358.185 -0.423815 362.164 1.38052 365.267L30.7839 415.841C32.5882 418.945 36.5668 419.998 39.6702 418.193C42.7737 416.389 43.8268 412.41 42.0225 409.307L15.8861 364.353L60.8405 338.216C63.9439 336.412 64.9971 332.433 63.1927 329.33C61.3884 326.227 57.4099 325.173 54.3064 326.978L3.73277 356.381ZM334.397 3.65182C308.286 -2.09246 287.852 0.602341 272.019 10.7039C256.334 20.7116 246.291 37.2842 239.369 56.9342C232.443 76.5969 228.376 100.11 225.163 124.935C223.552 137.381 222.143 150.271 220.705 163.254C219.265 176.262 217.796 189.377 216.057 202.389C209.045 254.854 197.808 303.76 168.557 334.284C139.988 364.096 92.4994 377.909 8.66311 355.717L5.33652 368.284C91.5003 391.092 144.761 377.905 177.943 343.279C210.442 309.365 221.955 256.396 228.943 204.111C230.704 190.935 232.187 177.684 233.626 164.684C235.068 151.661 236.463 138.904 238.055 126.604C241.248 101.937 245.182 79.5594 251.631 61.2534C258.084 42.9346 266.791 29.4603 279.012 21.6633C291.085 13.9602 307.714 11.0925 331.603 16.3482L334.397 3.65182Z" fill="#472BEA"/>
</svg>
