<svg width="37" height="37" viewBox="0 0 37 37" fill="none" xmlns="http://www.w3.org/2000/svg">
<path d="M20.6619 11.0099C21.6535 10.7711 22.735 10.784 23.6311 10.881V11.6447C23.0309 11.644 22.2312 11.6964 21.471 12.0524C20.5138 12.5006 19.8754 13.2972 19.539 14.3064C19.2346 15.22 19.172 16.3121 19.2364 17.5358L19.3361 19.4306H21.2336H23.4708L23.25 20.6408H21.2336H19.2336V22.6408V32V34.4059L21.599 33.9663C29.1936 32.5549 35 26.0338 35 18.1253C35 9.17052 27.563 2 18.5 2C9.43698 2 2 9.17052 2 18.1253C2 25.9869 7.73801 32.4777 15.266 33.9407L17.6475 34.4035V31.9774V22.6408V20.6408H15.6475H13.9631V19.4306H15.6475H17.868L17.6367 17.2223C17.3709 14.6848 17.828 13.2712 18.3632 12.4792C18.8887 11.7015 19.6763 11.2472 20.6619 11.0099Z" stroke="#241E24" stroke-width="4"/>
</svg>
