<svg width="614" height="508" viewBox="0 0 614 508" fill="none" xmlns="http://www.w3.org/2000/svg">
<path d="M443 355.214C496.638 355.214 544.465 345.643 587.343 336.833C582.195 332.459 577.862 327.464 575.6 320.807C571.733 309.428 574.289 294.801 582.899 272.776L583.079 272.315L583.327 271.887C598.651 245.409 607.5 214.246 607.5 180.857C607.5 84.2143 533.512 6.5 443 6.5C352.488 6.5 278.5 84.2143 278.5 180.857C278.5 277.5 352.488 355.214 443 355.214Z" fill="white" stroke="#241E24" stroke-width="13"/>
<path d="M171 501.5C117.358 501.5 69.5292 491.92 26.6488 483.102C31.8008 478.723 36.1376 473.723 38.4009 467.058C42.2667 455.673 39.7115 441.037 31.1018 418.995L30.9218 418.535L30.6742 418.106C15.35 391.607 6.5 360.417 6.5 327C6.5 230.273 80.4923 152.5 171 152.5C261.508 152.5 335.5 230.273 335.5 327C335.5 423.727 261.508 501.5 171 501.5Z" fill="white" stroke="#241E24" stroke-width="13"/>
<path d="M199.042 389.581C187.808 403.629 159.616 389.729 149.158 381.919M149.158 381.919C126.457 364.967 105.635 337.376 93.2713 311.929C83.8256 292.488 62.9457 238.303 90.5804 223.717C97.5525 220.037 155.685 204.426 155.367 219.368C154.797 246.189 147.13 272.407 149.158 299.712C150.399 316.425 157.653 328.676 173.789 334.811C191.795 341.655 254.618 367.318 225.743 324.561C228.043 321.025 252.989 258.831 236.92 259.54C232.918 259.717 228.74 262.562 225.95 264.924C212.329 276.454 201.165 291.516 189.52 304.889C168.019 329.58 145.892 353.143 121.008 374.465C113.095 381.245 104.631 390.143 95.7551 395.793C91.5734 398.455 88.5878 373.702 88.5106 373.015C84.6685 338.883 87.2238 301.322 122.663 286.045C129.874 282.937 142.841 278.433 149.572 285.01C154.378 289.706 156.196 296.224 158.162 302.404C164.14 321.201 168.116 340.565 174.203 359.349C181.406 381.575 191.8 400.556 201.836 421.263C204.591 426.947 192.839 425.143 189.934 425.404C164.555 427.692 136.661 434.492 115.005 416.914C102.065 406.412 129.652 412.889 132.392 413.601C158.915 420.5 185.362 427.672 212.91 428.925C227.552 429.59 248.657 429.968 258.24 416.293C273.959 393.861 273.694 353.888 270.866 328.288C269.811 318.737 267.913 302.306 257.516 297.848C243.422 291.806 203.194 322.774 193.143 331.29C176.083 345.745 162.594 364.207 149.158 381.919ZM149.158 381.919C147.263 384.417 164.4 375.216 159.611 374.258C149.916 372.318 143.76 355.22 141.085 347.546C134.066 327.408 134.761 304.089 142.224 284.182C156.517 246.049 197.263 234.117 232.367 250.325C240.784 254.212 256.01 269.109 265.278 269.48C266.321 269.521 265.931 267.39 265.692 266.374C263.783 258.261 258.554 250.906 253.79 244.32C239.519 224.596 222.499 206.001 202.767 191.621C193.326 184.74 187.119 183.156 177.101 190.171C153.971 206.369 134.648 231.896 122.663 257.262C119.246 264.496 108.096 288.669 122.353 291.119C158.799 297.379 198.165 291.798 235.057 293.086C239.733 293.249 256.067 293.607 244.061 300.333C222.937 312.168 192.488 311.362 169.236 313.172C141.805 315.306 113.994 317.588 86.4407 316.899C21.7951 315.282 254.158 349.119 310.608 380.677M310.608 380.677C320.875 386.417 289.04 352.238 278.939 357.796C251.205 373.055 210.806 374.429 180.206 378.606C140.113 384.079 19.4912 394.292 59.9464 395.172C78.2991 395.571 96.2371 397.534 114.28 401.073C126.067 403.386 151.673 405.455 160.542 415.672C163.119 418.641 149.284 428.77 155.988 430.167C171.412 433.381 191.211 431.11 206.7 430.063C223.586 428.922 250.885 427.081 262.587 412.359C267.944 405.619 266.106 393.381 266.106 385.543C266.106 362.405 265.675 339.302 254.928 318.141C238.13 285.067 208.76 258.049 177.618 238.729C161.871 228.96 144.627 220.298 127.01 214.399C119.838 211.997 112.54 209.937 105.794 214.192C70.2989 236.578 58.0743 286.674 52.1843 324.975C50.9432 333.046 44.6531 355.183 50.425 349.409C55.8534 343.978 57.9568 327.698 60.8778 320.73C75.2827 286.366 100.105 241.755 136.325 226.409C179.644 208.054 217.385 253.032 245.821 279.108C247.25 280.419 267.303 295.484 266.106 300.126C262.514 314.048 229.71 328.487 219.637 333.775C182.437 353.304 142.769 366.741 103.207 380.47C94.6189 383.45 72.4592 387.51 73.09 400.763C73.721 414.019 93.5139 413.193 102.379 413.808C155.067 417.466 208.036 419.61 260.827 420.952C262.841 421.004 294.974 424.797 299.223 420.849C302.303 417.988 297.312 404.05 296.533 401.488C289.012 376.766 272.157 347.652 254.618 328.702C242.476 315.584 220.124 315.227 203.595 314C198.447 313.618 191.167 313.299 185.795 314C185.337 314.06 177.702 317.228 177.101 317.002C172.856 315.41 181.724 284.018 182.483 281.904C189.523 262.301 203.501 244.902 225.019 241.525C232.708 240.318 254.711 238.465 257.826 249.187C261.147 260.615 257.476 278.36 252.341 288.634C235.782 321.766 202.057 343.711 179.585 372.187C173.079 380.431 154.256 386.704 161.784 388.546M310.608 380.677C313.975 398.98 262.03 393.542 250.581 393.412C221.91 393.086 189.885 395.421 161.784 388.546M310.608 380.677C306.256 357.022 292.136 333.547 280.181 313.068C258.168 275.36 229.055 261.219 186.208 260.99C170.272 260.904 152.351 260.078 136.946 264.82C132.261 266.262 128.893 269.499 124.112 270.722C123.124 270.975 116.811 274.131 117.489 271.757C119.19 265.8 127.152 260.041 131.564 256.227C156.072 235.038 188.204 240.49 218.498 240.49C234.227 240.49 250.502 239.336 266.209 240.593C270.182 240.911 269.781 245.27 269.831 248.358C270.029 260.434 273.692 274.199 270.866 286.045C268.298 296.812 259.425 304.424 250.271 309.858C221.845 326.733 187.173 332.825 155.16 338.849C122.514 344.991 89.5079 352.046 56.2206 352.308C51.9398 352.342 38.4366 350.574 35.4184 355.104C32.1339 360.032 52.3855 366.758 53.6332 367.217C81.2854 377.392 106.969 374.901 135.497 376.743C145.068 377.36 158.066 378.318 161.784 388.546M161.784 388.546C165.878 399.808 170.479 405.257 163.647 417.95C158.644 427.245 122.456 466 159.611 466C196.765 466 293.72 393.181 360.906 358C428.091 322.819 405.615 324.576 459.638 324.568C513.662 324.561 577 266.374 577 190.171C577 113.969 531.538 55.1504 459.638 46.5672C379.401 36.9886 302.023 109.789 310.608 190.171C318.436 263.468 387.629 321.558 459.638 305.932C517.233 293.434 555.694 249.123 556.509 190.171C557.337 130.224 519.04 79.041 459.638 71.1051C393.065 62.2111 325.986 120.651 332.962 187.479C339.363 248.791 400.111 297.52 459.638 281.593C504.123 269.691 533.775 236.237 534.154 190.171C534.537 143.634 505.713 103.618 459.638 97.1962C409.36 90.1886 358.247 131.069 360.906 181.785C363.454 230.387 413.097 271.951 459.638 257.78C491.963 247.938 514.388 223.966 513.662 190.171C512.956 157.253 492.306 129.467 459.638 125.461C425.141 121.231 389.156 147.05 390.712 181.785C392.214 215.327 427.839 243.877 459.638 233.139C481.009 225.922 497.382 209.921 495.033 187.479C492.953 167.599 479.615 150.077 459.638 150.517C442.229 150.901 426.046 162.501 426.107 179.921C426.167 197.289 444.13 216.923 459.638 209.118C469.298 204.257 475.66 195.082 472.679 184.684C472.679 184.684 468.953 171.224 459.638 171.224C450.324 171.224 444.5 179.921 450.324 184.684" stroke="#472BEA" stroke-width="10" stroke-linecap="round"/>
</svg>
